<svg width="27" height="28" viewBox="0 0 27 28" fill="none" xmlns="http://www.w3.org/2000/svg">
<path d="M25.0899 0.839844H2.36759C1.32642 0.839844 0.480469 1.69763 0.480469 2.75063V25.4316C0.480469 26.4846 1.32642 27.3424 2.36759 27.3424H25.0899C26.1311 27.3424 26.983 26.4846 26.983 25.4316V2.75063C26.983 1.69763 26.1311 0.839844 25.0899 0.839844ZM8.49038 23.5563H4.56233V10.9084H8.49629V23.5563H8.49038ZM6.52635 9.18104C5.2663 9.18104 4.24879 8.15761 4.24879 6.90348C4.24879 5.64934 5.2663 4.62592 6.52635 4.62592C7.78049 4.62592 8.80391 5.64934 8.80391 6.90348C8.80391 8.16353 7.78641 9.18104 6.52635 9.18104ZM23.2147 23.5563H19.2866V17.4039C19.2866 15.9368 19.257 14.0497 17.2457 14.0497C15.1988 14.0497 14.8853 15.6469 14.8853 17.2974V23.5563H10.9572V10.9084H14.7256V12.6358H14.7788C15.3053 11.642 16.589 10.5949 18.4998 10.5949C22.4752 10.5949 23.2147 13.2156 23.2147 16.623V23.5563Z" fill="white"/>
</svg>
