<svg width="86" height="29" viewBox="0 0 86 29" fill="none" xmlns="http://www.w3.org/2000/svg">
<path d="M37.1482 28.2763H30.1562L34.5264 1.41797H41.5191L37.1482 28.2763Z" fill="#F5F5F5"/>
<path d="M24.2731 1.41797L17.6062 19.8903L16.8181 15.9123L16.8188 15.9138L14.4653 3.83693C14.4653 3.83693 14.1815 1.41797 11.1484 1.41797H0.128594L0 1.87202C0 1.87202 3.3708 2.57321 7.31346 4.94331L13.3884 28.2758H20.6738L31.7985 1.41797H24.2731Z" fill="#F5F5F5"/>
<path d="M79.271 28.2758H85.6915L80.0936 1.41797H74.472C71.8757 1.41797 71.2435 3.41951 71.2435 3.41951L60.8164 28.2758H68.104L69.5624 24.2871H78.4513L79.271 28.2758ZM71.5768 18.7752L75.2515 8.72441L77.3184 18.7752H71.5768Z" fill="#F5F5F5"/>
<path d="M61.3643 7.87682L62.3615 2.10854C62.3615 2.10854 59.2823 0.9375 56.0724 0.9375C52.6025 0.9375 44.363 2.45482 44.363 9.8288C44.363 16.7681 54.0336 16.8543 54.0336 20.4975C54.0336 24.1407 45.3595 23.4898 42.4973 21.1915L41.457 27.2213C41.457 27.2213 44.5785 28.7386 49.3502 28.7386C54.1212 28.7386 61.3205 26.2665 61.3205 19.5434C61.3205 12.5603 51.5622 11.9101 51.5622 8.87473C51.5622 5.83791 58.3721 6.22802 61.3643 7.87682Z" fill="#F5F5F5"/>
<path d="M16.8188 15.9133L14.4653 3.83644C14.4653 3.83644 14.1815 1.41748 11.1484 1.41748H0.128594L0 1.87153C0 1.87153 5.29687 2.97001 10.3782 7.08231C15.2347 11.0136 16.8188 15.9133 16.8188 15.9133Z" fill="#F5F5F5"/>
</svg>
