<svg width="34" height="24" viewBox="0 0 34 24" fill="none" xmlns="http://www.w3.org/2000/svg">
<path d="M32.539 4.28677C32.1674 2.8877 31.0727 1.78584 29.6826 1.4119C27.1631 0.732422 17.0602 0.732422 17.0602 0.732422C17.0602 0.732422 6.95728 0.732422 4.43771 1.4119C3.04769 1.7859 1.95292 2.8877 1.58135 4.28677C0.90625 6.82267 0.90625 12.1136 0.90625 12.1136C0.90625 12.1136 0.90625 17.4045 1.58135 19.9404C1.95292 21.3395 3.04769 22.3954 4.43771 22.7694C6.95728 23.4489 17.0602 23.4489 17.0602 23.4489C17.0602 23.4489 27.1631 23.4489 29.6826 22.7694C31.0727 22.3954 32.1674 21.3395 32.539 19.9404C33.2141 17.4045 33.2141 12.1136 33.2141 12.1136C33.2141 12.1136 33.2141 6.82267 32.539 4.28678V4.28677ZM13.7559 16.9174V7.30983L22.2 12.1137L13.7559 16.9173V16.9174Z" fill="white"/>
</svg>
